HIERARCHY
ROOT root
{
	OFFSET 0.000000 0.000000 0.000000
	CHANNELS 6 Xposition Yposition Zposition Zrotation Yrotation Xrotation
	JOINT lhip
	{
		OFFSET 0.058581 -0.082280 -0.017664
		CHANNELS 3 Zrotation Yrotation Xrotation
		JOINT lknee
		{
			OFFSET 0.043451 -0.386469 0.008037
			CHANNELS 3 Zrotation Yrotation Xrotation
			JOINT lankle
			{
				OFFSET -0.014790 -0.426874 -0.037428
				CHANNELS 3 Zrotation Yrotation Xrotation
				JOINT ltoe
				{
					OFFSET 0.041054 -0.060286 0.122042
					CHANNELS 3 Zrotation Yrotation Xrotation
					End Site
					{
						OFFSET 0.000000 0.000000 0.000000
					}
				}
			}
		}
	}
	JOINT rhip
	{
		OFFSET -0.060310 -0.090513 -0.013543
		CHANNELS 3 Zrotation Yrotation Xrotation
		JOINT rknee
		{
			OFFSET -0.043257 -0.383688 -0.004843
			CHANNELS 3 Zrotation Yrotation Xrotation
			JOINT rankle
			{
				OFFSET 0.019056 -0.420046 -0.034562
				CHANNELS 3 Zrotation Yrotation Xrotation
				JOINT rtoe
				{
					OFFSET -0.034840 -0.062106 0.130323
					CHANNELS 3 Zrotation Yrotation Xrotation
					End Site
					{
						OFFSET 0.000000 0.000000 0.000000
					}
				}
			}
		}
	}
	JOINT lowerback
	{
		OFFSET 0.004439 0.124404 -0.038385
		CHANNELS 3 Zrotation Yrotation Xrotation
		JOINT upperback
		{
			OFFSET 0.004488 0.137956 0.026820
			CHANNELS 3 Zrotation Yrotation Xrotation
			JOINT chest
			{
				OFFSET -0.002265 0.056032 0.002855
				CHANNELS 3 Zrotation Yrotation Xrotation
				JOINT lowerneck
				{
					OFFSET -0.013390 0.211636 -0.033468
					CHANNELS 3 Zrotation Yrotation Xrotation
					JOINT upperneck
					{
						OFFSET 0.010113 0.088937 0.050410
						CHANNELS 3 Zrotation Yrotation Xrotation
						End Site
						{
							OFFSET 0.000000 0.000000 0.000000
						}
					}
				}
				JOINT lclavicle
				{
					OFFSET 0.071702 0.114000 -0.018898
					CHANNELS 3 Zrotation Yrotation Xrotation
					JOINT lshoulder
					{
						OFFSET 0.122921 0.045205 -0.019046
						CHANNELS 3 Zrotation Yrotation Xrotation
						JOINT lelbow
						{
							OFFSET 0.255332 -0.015649 -0.022946
							CHANNELS 3 Zrotation Yrotation Xrotation
							JOINT lwrist
							{
								OFFSET 0.265709 0.012698 -0.007375
								CHANNELS 3 Zrotation Yrotation Xrotation
								End Site
								{
									OFFSET 0.000000 0.000000 0.000000
								}
							}
						}
					}
				}
				JOINT rclavicle
				{
					OFFSET -0.082954 0.112472 -0.023707
					CHANNELS 3 Zrotation Yrotation Xrotation
					JOINT rshoulder
					{
						OFFSET -0.113228 0.046853 -0.008472
						CHANNELS 3 Zrotation Yrotation Xrotation
						JOINT relbow
						{
							OFFSET -0.260127 -0.014369 -0.031269
							CHANNELS 3 Zrotation Yrotation Xrotation
							JOINT rwrist
							{
								OFFSET -0.269108 0.006794 -0.006027
								CHANNELS 3 Zrotation Yrotation Xrotation
								End Site
								{
									OFFSET 0.000000 0.000000 0.000000
								}
							}
						}
					}
				}
			}
		}
	}
}
MOTION
Frames: 11
Frame Time: 0.033333
0.167631 2.529950 0.978016 5.201209 1.022670 84.171899 -4.031252 -2.206130 4.041043 -5.094556 -9.739633 13.611118 8.112901 15.550001 -23.060522 0.000000 -0.000000 0.000000 2.811360 4.866946 -21.255183 1.899053 -2.684239 50.620548 4.796298 -7.967825 -14.136880 0.000000 -0.000000 0.000000 -2.798473 -2.180245 13.406655 2.277629 -0.019057 0.475715 1.064424 -0.853812 3.210806 1.735093 6.363966 0.911389 -0.820378 1.784962 -2.797260 -18.963762 0.559855 0.354324 -64.631934 -8.413533 17.770113 0.032859 -40.321514 26.134616 -5.319413 -2.897865 -8.083781 21.452188 1.598470 -0.672486 61.338731 3.274112 15.235503 -8.005956 15.036078 11.285756 13.898407 -2.940510 0.612708 
0.167995 2.518843 0.980784 5.427123 1.775888 85.100158 -2.798908 -2.055402 4.810451 -5.139788 -10.241906 11.585455 7.374165 14.801795 -22.848524 0.000000 -0.000000 0.000000 3.151865 4.993559 -24.411805 1.870207 -3.019771 48.483134 5.017263 -6.864682 -12.246610 0.000000 -0.000000 0.000000 -2.152678 -2.546612 11.728135 2.677404 0.632888 2.389535 1.414543 -0.920999 3.216794 1.041536 6.063177 0.144689 -1.341933 1.536451 -3.080695 -18.575906 0.348488 0.439264 -66.223734 -9.380351 18.537173 2.460095 -42.921595 24.621005 -5.041364 -2.962609 -10.166657 21.034810 1.717522 -0.107647 60.674857 3.177184 15.036730 -7.344573 13.342967 12.113328 16.050821 -3.096884 -1.071271 
0.168484 2.506013 0.983112 5.877945 2.171589 86.199872 -1.933577 -1.577485 5.351001 -5.183342 -10.883855 9.801527 6.790547 13.911591 -22.592067 0.000000 -0.000000 0.000000 2.854036 5.257727 -26.914919 1.121991 -4.160479 43.571205 5.542110 -7.117385 -10.398469 0.000000 -0.000000 0.000000 -1.732371 -3.531109 11.454828 2.644280 1.061372 2.251027 1.764609 -0.889920 2.943772 0.366494 5.328666 0.024461 -1.242302 1.814236 -3.455426 -18.366286 1.026422 0.727199 -67.072085 -9.802958 19.001258 3.782481 -45.894739 23.430327 -4.269845 -3.044718 -11.369712 20.550460 1.569727 0.549794 60.338328 3.071310 14.669954 -6.177756 11.179613 11.859022 16.975848 -2.813281 -2.367419 
0.168779 2.485623 0.982774 7.486111 2.743028 87.430507 -0.681388 -1.155590 5.855879 -5.245141 -11.701015 8.715582 6.187570 12.097099 -22.420144 0.000000 -0.000000 0.000000 2.400770 4.498865 -29.327919 -0.110490 -5.587079 34.273559 6.113763 -7.228982 -9.392482 0.000000 -0.000000 0.000000 -0.778150 -4.526323 12.371268 2.489914 0.775991 1.672758 2.165313 -1.230837 2.681267 -0.487725 5.239122 -1.459243 -0.889841 2.479967 -4.488154 -17.967101 1.231664 0.717587 -67.481081 -10.715159 19.693360 4.134488 -49.255424 22.996330 -1.243950 -4.183552 -12.634645 20.108218 1.291481 0.887743 59.850594 2.364982 14.420526 -5.563720 9.561554 12.147810 16.218624 -3.074901 -0.999950 
0.168345 2.477780 0.981431 7.739105 2.794680 87.827257 -0.352083 -0.964666 5.969287 -5.382629 -11.908632 8.610842 6.067759 11.705405 -22.757943 0.000000 -0.000000 0.000000 2.309723 4.200475 -30.068874 -0.383313 -5.500160 31.353051 6.282815 -6.994621 -8.695650 0.000000 -0.000000 0.000000 -0.631172 -4.588417 12.542473 2.464602 0.685154 1.630462 2.282304 -1.332627 2.670257 -0.621733 5.236956 -1.856342 -0.776467 2.677684 -4.934985 -17.976989 1.019564 0.712732 -67.209451 -11.065143 19.868120 3.899437 -50.025924 23.160775 0.136666 -4.625960 -12.612012 20.201836 1.251524 1.103032 59.573892 2.107332 14.312881 -5.628577 9.510629 12.298912 15.549746 -3.155279 -0.061931 
0.167047 2.460294 0.977309 7.985307 2.597235 88.480201 0.014141 -0.661182 6.439896 -5.767359 -12.334690 8.485629 6.012901 11.384094 -23.368751 0.000000 -0.000000 0.000000 1.999938 3.551709 -31.304983 -0.548985 -4.525179 26.041615 6.903719 -6.493949 -5.062615 0.000000 -0.000000 0.000000 -0.713422 -4.514433 12.919387 2.416364 0.536463 1.676627 2.474137 -1.501125 2.600494 -0.800314 5.463196 -2.723872 -0.536409 3.273564 -5.589995 -18.093426 0.526422 0.612257 -66.361865 -11.857638 20.083825 2.931626 -50.755579 24.108762 2.458313 -5.604824 -11.863665 20.707574 1.062440 1.488224 58.993123 1.856174 14.210475 -6.075470 9.415568 12.837168 14.272942 -3.564447 2.933268 
0.165251 2.441067 0.971989 7.828866 2.153918 88.945478 0.062434 -0.230643 7.237437 -5.968675 -12.594617 8.402906 6.017559 11.305582 -24.180484 0.000000 -0.000000 0.000000 1.732368 3.048212 -32.269270 -0.560047 -2.748674 22.165963 7.315065 -5.684482 -2.865880 0.000000 -0.000000 0.000000 -1.078138 -4.206082 13.135945 2.350812 0.447469 2.207286 2.604144 -1.551092 2.464019 -0.869802 6.320645 -3.720835 -0.412925 3.868532 -6.133515 -18.124439 -0.458981 0.442032 -65.606859 -12.608567 20.126439 2.386220 -49.943527 24.531730 4.074313 -6.302011 -10.210032 21.226182 1.435937 1.737288 58.578989 1.966792 14.008986 -6.374397 9.116254 12.091811 13.064646 -3.416312 3.973723 
0.162545 2.419181 0.966195 7.287600 1.931488 89.600738 0.492391 0.495662 8.025293 -6.253652 -12.825317 8.338389 5.709486 11.126074 -25.038584 0.000000 -0.000000 0.000000 1.846466 2.925922 -33.324690 -0.689543 -1.564341 20.571959 7.262939 -5.082674 -3.098822 0.000000 -0.000000 0.000000 -1.239279 -4.029574 13.038729 2.391838 0.542958 2.403747 2.694426 -1.524354 2.188289 -0.708066 6.937230 -3.878804 -0.558872 4.177767 -5.953977 -18.286716 -1.320955 0.375992 -65.285280 -12.739643 20.013176 2.596726 -47.529994 24.435723 5.367113 -6.461377 -8.118808 21.449807 2.102490 2.149992 58.386742 2.327851 13.828562 -6.401269 8.382774 11.495521 11.872701 -3.070009 4.004380 
0.159360 2.393418 0.960984 6.740219 1.911000 90.394823 0.947929 0.955131 9.027461 -6.167289 -12.973616 8.185944 5.387568 11.203936 -25.122618 0.000000 -0.000000 0.000000 2.180544 2.921870 -34.216019 -0.974726 -1.998167 21.876590 7.048018 -5.821853 -1.859428 0.000000 -0.000000 0.000000 -1.089595 -4.266518 12.773782 2.349783 0.715349 1.765787 2.734903 -1.392598 2.066370 -0.828091 7.477192 -3.838897 -0.797312 5.006752 -5.538388 -18.665669 -1.480664 0.575558 -65.325673 -12.474282 19.439827 2.810373 -43.635728 24.318216 4.630709 -6.572752 -5.868206 21.720804 2.534258 2.476581 58.142314 2.880306 13.864323 -6.390769 7.317834 11.266730 12.016302 -3.022224 4.115159 
0.155934 2.364147 0.956814 5.908968 2.291843 90.562817 1.293908 1.003943 10.854263 -5.552793 -13.273828 8.385779 4.696223 11.476601 -24.676173 0.000000 -0.000000 0.000000 2.786619 3.670393 -34.264925 -1.626642 -4.347740 25.768609 5.900139 -7.934900 -0.936506 0.000000 -0.000000 0.000000 -0.489354 -4.749804 11.999060 2.485330 1.132468 2.743803 2.602803 -1.105107 1.751802 -0.992698 8.041179 -4.036850 -1.486042 5.785099 -5.211858 -19.045798 -1.765410 0.649841 -65.861427 -11.917968 18.534892 3.796693 -38.525139 22.975313 2.090343 -5.297456 -4.866536 21.744455 3.419869 2.486624 58.034138 3.891698 13.998974 -6.616487 6.481982 11.104885 13.499512 -3.426987 3.644963 
0.151090 2.331173 0.955683 3.775691 3.203018 91.033794 1.727093 0.949726 12.237235 -4.860824 -12.758349 9.640769 3.208912 12.185171 -23.501277 0.000000 -0.000000 0.000000 3.623724 6.271782 -34.038841 -1.475119 -5.992918 28.346803 4.661401 -7.434984 -4.582758 0.000000 -0.000000 0.000000 0.671677 -5.114653 11.149937 2.524119 2.315755 2.367405 2.403517 -0.711105 1.688953 -1.166258 8.999677 -3.393795 -2.345274 6.329474 -5.457446 -20.062949 -1.251129 0.929804 -66.078183 -10.141637 17.384396 4.779778 -33.822189 21.179674 0.354167 -4.613172 -3.380156 22.112606 4.005501 2.898940 57.466867 4.922816 13.932477 -6.627022 6.075194 11.624639 13.803897 -3.581020 2.578215 
